<svg width="213" height="60" viewBox="0 0 213 60" fill="none" xmlns="http://www.w3.org/2000/svg">
<rect width="213" height="60" rx="30" fill="#1820EF"/>
<path fill-rule="evenodd" clip-rule="evenodd" d="M196.712 28.232L190.359 21.2987C189.984 20.8896 189.388 20.9024 189.028 21.3269C188.667 21.7515 188.679 22.4267 189.053 22.8352L193.725 27.9333H177.941C177.421 27.9333 177 28.4112 177 29C177 29.5893 177.421 30.0667 177.941 30.0667H193.725L189.053 35.1653C188.679 35.5739 188.667 36.2491 189.028 36.6736C189.213 36.8907 189.459 37 189.706 37C189.941 37 190.176 36.9013 190.359 36.7019L196.712 29.7685C196.896 29.5675 197 29.2901 197 29C197 28.7104 196.896 28.4331 196.712 28.232Z" fill="#FFC024"/>
<path d="M23.574 29.89C23.574 27.6967 22.79 26.6 21.222 26.6C19.654 26.6 18.87 27.6967 18.87 29.89C18.87 32.0833 19.654 33.18 21.222 33.18C22.79 33.18 23.574 32.0833 23.574 29.89ZM24.722 33.754C23.8633 34.678 22.6967 35.14 21.222 35.14C19.7473 35.14 18.5807 34.678 17.722 33.754C16.8633 32.8207 16.434 31.5327 16.434 29.89C16.434 28.2473 16.8633 26.964 17.722 26.04C18.5807 25.1067 19.7473 24.64 21.222 24.64C22.6967 24.64 23.8633 25.1067 24.722 26.04C25.5807 26.964 26.01 28.2473 26.01 29.89C26.01 31.5327 25.5807 32.8207 24.722 33.754ZM31.6273 26.656V29.344C31.6273 29.428 31.6646 29.47 31.7393 29.47H32.4113C33.0646 29.47 33.564 29.3347 33.9093 29.064C34.2546 28.784 34.4273 28.3967 34.4273 27.902C34.4273 26.9313 33.788 26.446 32.5093 26.446C32.22 26.446 31.968 26.4647 31.7533 26.502C31.6693 26.5207 31.6273 26.572 31.6273 26.656ZM30.0873 35C29.8726 35 29.686 34.9207 29.5273 34.762C29.3686 34.6033 29.2893 34.4167 29.2893 34.202V25.648C29.2893 25.4147 29.364 25.214 29.5133 25.046C29.672 24.878 29.8633 24.7847 30.0873 24.766C30.918 24.682 31.772 24.64 32.6493 24.64C34.0493 24.64 35.09 24.906 35.7713 25.438C36.462 25.9607 36.8073 26.7073 36.8073 27.678C36.8073 28.3033 36.6253 28.868 36.2613 29.372C35.8973 29.8667 35.4213 30.2213 34.8333 30.436C34.824 30.436 34.8193 30.4407 34.8193 30.45C34.8193 30.4687 34.8286 30.478 34.8473 30.478C35.3046 30.7393 35.692 31.29 36.0093 32.13L36.8073 34.258C36.8726 34.4353 36.8493 34.6033 36.7373 34.762C36.6253 34.9207 36.476 35 36.2893 35H35.4353C35.1926 35 34.9733 34.93 34.7773 34.79C34.5813 34.65 34.446 34.468 34.3713 34.244L33.6713 32.228C33.5406 31.836 33.382 31.57 33.1953 31.43C33.0086 31.29 32.7193 31.22 32.3273 31.22H31.7393C31.6646 31.22 31.6273 31.262 31.6273 31.346V34.202C31.6273 34.4167 31.548 34.6033 31.3893 34.762C31.2306 34.9207 31.044 35 30.8293 35H30.0873ZM42.5261 26.712V33.068C42.5261 33.152 42.5681 33.2033 42.6521 33.222C42.8388 33.2593 43.0628 33.278 43.3241 33.278C44.2668 33.278 44.9621 33.0027 45.4101 32.452C45.8675 31.9013 46.0961 31.0007 46.0961 29.75C46.0961 28.63 45.8675 27.8087 45.4101 27.286C44.9528 26.7633 44.2575 26.502 43.3241 26.502C43.0628 26.502 42.8388 26.5207 42.6521 26.558C42.5681 26.5767 42.5261 26.628 42.5261 26.712ZM40.9861 35.028C40.7621 35.0093 40.5755 34.916 40.4261 34.748C40.2768 34.5707 40.2021 34.3653 40.2021 34.132V25.648C40.2021 25.4147 40.2768 25.214 40.4261 25.046C40.5755 24.8687 40.7621 24.7707 40.9861 24.752C41.7141 24.6773 42.4328 24.64 43.1421 24.64C44.8128 24.64 46.1008 25.0833 47.0061 25.97C47.9115 26.8567 48.3641 28.1167 48.3641 29.75C48.3641 31.5233 47.9115 32.8673 47.0061 33.782C46.1008 34.6873 44.8128 35.14 43.1421 35.14C42.4328 35.14 41.7141 35.1027 40.9861 35.028ZM52.4321 35C52.2175 35 52.0308 34.9207 51.8721 34.762C51.7228 34.6033 51.6481 34.4167 51.6481 34.202V25.578C51.6481 25.3633 51.7228 25.1767 51.8721 25.018C52.0308 24.8593 52.2175 24.78 52.4321 24.78H57.3881C57.6028 24.78 57.7848 24.8593 57.9341 25.018C58.0928 25.1767 58.1721 25.3633 58.1721 25.578V25.9C58.1721 26.1147 58.0928 26.3013 57.9341 26.46C57.7848 26.6187 57.6028 26.698 57.3881 26.698H54.1401C54.0655 26.698 54.0281 26.7353 54.0281 26.81V28.658C54.0281 28.742 54.0655 28.784 54.1401 28.784H57.1081C57.3228 28.784 57.5048 28.8633 57.6541 29.022C57.8128 29.1807 57.8921 29.3673 57.8921 29.582V29.792C57.8921 30.0067 57.8128 30.1933 57.6541 30.352C57.5048 30.5107 57.3228 30.59 57.1081 30.59H54.1401C54.0655 30.59 54.0281 30.6273 54.0281 30.702V32.97C54.0281 33.0447 54.0655 33.082 54.1401 33.082H57.3881C57.6028 33.082 57.7848 33.1613 57.9341 33.32C58.0928 33.4787 58.1721 33.6653 58.1721 33.88V34.202C58.1721 34.4167 58.0928 34.6033 57.9341 34.762C57.7848 34.9207 57.6028 35 57.3881 35H52.4321ZM64.2837 26.656V29.344C64.2837 29.428 64.3211 29.47 64.3957 29.47H65.0677C65.7211 29.47 66.2204 29.3347 66.5657 29.064C66.9111 28.784 67.0837 28.3967 67.0837 27.902C67.0837 26.9313 66.4444 26.446 65.1657 26.446C64.8764 26.446 64.6244 26.4647 64.4097 26.502C64.3257 26.5207 64.2837 26.572 64.2837 26.656ZM62.7437 35C62.5291 35 62.3424 34.9207 62.1837 34.762C62.0251 34.6033 61.9457 34.4167 61.9457 34.202V25.648C61.9457 25.4147 62.0204 25.214 62.1697 25.046C62.3284 24.878 62.5197 24.7847 62.7437 24.766C63.5744 24.682 64.4284 24.64 65.3057 24.64C66.7057 24.64 67.7464 24.906 68.4277 25.438C69.1184 25.9607 69.4637 26.7073 69.4637 27.678C69.4637 28.3033 69.2817 28.868 68.9177 29.372C68.5537 29.8667 68.0777 30.2213 67.4897 30.436C67.4804 30.436 67.4757 30.4407 67.4757 30.45C67.4757 30.4687 67.4851 30.478 67.5037 30.478C67.9611 30.7393 68.3484 31.29 68.6657 32.13L69.4637 34.258C69.5291 34.4353 69.5057 34.6033 69.3937 34.762C69.2817 34.9207 69.1324 35 68.9457 35H68.0917C67.8491 35 67.6297 34.93 67.4337 34.79C67.2377 34.65 67.1024 34.468 67.0277 34.244L66.3277 32.228C66.1971 31.836 66.0384 31.57 65.8517 31.43C65.6651 31.29 65.3757 31.22 64.9837 31.22H64.3957C64.3211 31.22 64.2837 31.262 64.2837 31.346V34.202C64.2837 34.4167 64.2044 34.6033 64.0457 34.762C63.8871 34.9207 63.7004 35 63.4857 35H62.7437ZM79.5108 35C79.2961 35 79.1094 34.9207 78.9508 34.762C78.7921 34.6033 78.7128 34.4167 78.7128 34.202V25.578C78.7128 25.3633 78.7921 25.1767 78.9508 25.018C79.1094 24.8593 79.2961 24.78 79.5108 24.78H80.1968C80.7288 24.78 81.1161 25.0133 81.3588 25.48L84.2988 31.038C84.2988 31.0473 84.3034 31.052 84.3128 31.052C84.3221 31.052 84.3268 31.0473 84.3268 31.038V25.578C84.3268 25.3633 84.4061 25.1767 84.5648 25.018C84.7234 24.8593 84.9101 24.78 85.1248 24.78H85.8108C86.0254 24.78 86.2121 24.8593 86.3708 25.018C86.5294 25.1767 86.6088 25.3633 86.6088 25.578V34.202C86.6088 34.4167 86.5294 34.6033 86.3708 34.762C86.2121 34.9207 86.0254 35 85.8108 35H85.1248C84.5928 35 84.2054 34.7667 83.9628 34.3L81.0228 28.742C81.0228 28.7327 81.0181 28.728 81.0088 28.728C80.9994 28.728 80.9948 28.7327 80.9948 28.742V34.202C80.9948 34.4167 80.9154 34.6033 80.7568 34.762C80.5981 34.9207 80.4114 35 80.1968 35H79.5108ZM97.0242 29.89C97.0242 27.6967 96.2402 26.6 94.6722 26.6C93.1042 26.6 92.3202 27.6967 92.3202 29.89C92.3202 32.0833 93.1042 33.18 94.6722 33.18C96.2402 33.18 97.0242 32.0833 97.0242 29.89ZM98.1722 33.754C97.3136 34.678 96.1469 35.14 94.6722 35.14C93.1976 35.14 92.0309 34.678 91.1722 33.754C90.3136 32.8207 89.8842 31.5327 89.8842 29.89C89.8842 28.2473 90.3136 26.964 91.1722 26.04C92.0309 25.1067 93.1976 24.64 94.6722 24.64C96.1469 24.64 97.3136 25.1067 98.1722 26.04C99.0309 26.964 99.4602 28.2473 99.4602 29.89C99.4602 31.5327 99.0309 32.8207 98.1722 33.754ZM103.698 34.216L101.976 25.564C101.929 25.3587 101.971 25.1767 102.102 25.018C102.242 24.8593 102.415 24.78 102.62 24.78H103.432C103.656 24.78 103.857 24.8547 104.034 25.004C104.211 25.1533 104.314 25.34 104.342 25.564L105.294 32.564C105.294 32.5733 105.299 32.578 105.308 32.578C105.317 32.578 105.322 32.5733 105.322 32.564L106.19 25.564C106.218 25.34 106.316 25.1533 106.484 25.004C106.652 24.8547 106.848 24.78 107.072 24.78H108.388C108.612 24.78 108.808 24.8547 108.976 25.004C109.144 25.1533 109.242 25.34 109.27 25.564L110.138 32.564C110.138 32.5733 110.143 32.578 110.152 32.578C110.161 32.578 110.166 32.5733 110.166 32.564L111.118 25.564C111.146 25.34 111.249 25.1533 111.426 25.004C111.603 24.8547 111.804 24.78 112.028 24.78H112.784C112.989 24.78 113.157 24.8593 113.288 25.018C113.419 25.1767 113.465 25.3587 113.428 25.564L111.706 34.216C111.659 34.44 111.547 34.6267 111.37 34.776C111.193 34.9253 110.987 35 110.754 35H109.564C109.34 35 109.139 34.9253 108.962 34.776C108.794 34.6267 108.696 34.44 108.668 34.216L107.716 27.216C107.716 27.2067 107.711 27.202 107.702 27.202C107.693 27.202 107.688 27.2067 107.688 27.216L106.736 34.216C106.708 34.44 106.605 34.6267 106.428 34.776C106.26 34.9253 106.064 35 105.84 35H104.65C104.417 35 104.207 34.9253 104.02 34.776C103.843 34.6267 103.735 34.44 103.698 34.216Z" fill="white"/>
</svg>
