<svg width="213" height="60" viewBox="0 0 213 60" fill="none" xmlns="http://www.w3.org/2000/svg">
<rect width="213" height="60" rx="30" fill="#C5C5C5"/>
<path fill-rule="evenodd" clip-rule="evenodd" d="M196.712 28.232L190.359 21.2987C189.984 20.8896 189.388 20.9024 189.028 21.3269C188.667 21.7515 188.679 22.4267 189.053 22.8352L193.725 27.9333H177.941C177.421 27.9333 177 28.4112 177 29C177 29.5893 177.421 30.0667 177.941 30.0667H193.725L189.053 35.1653C188.679 35.5739 188.667 36.2491 189.028 36.6736C189.213 36.8907 189.459 37 189.706 37C189.941 37 190.176 36.9013 190.359 36.7019L196.712 29.7685C196.896 29.5675 197 29.2901 197 29C197 28.7104 196.896 28.4331 196.712 28.232Z" fill="white"/>
<path d="M19.402 26.656V29.708C19.402 29.7733 19.444 29.8153 19.528 29.834C19.8453 29.8713 20.0973 29.89 20.284 29.89C20.956 29.89 21.474 29.736 21.838 29.428C22.2113 29.1107 22.398 28.672 22.398 28.112C22.398 27.0013 21.6933 26.446 20.284 26.446C20.0507 26.446 19.794 26.4693 19.514 26.516C19.4393 26.5347 19.402 26.5813 19.402 26.656ZM17.862 35C17.6473 35 17.4607 34.9207 17.302 34.762C17.1433 34.6033 17.064 34.4167 17.064 34.202V25.648C17.064 25.424 17.1387 25.2233 17.288 25.046C17.4373 24.8687 17.624 24.7707 17.848 24.752C18.6413 24.6773 19.4067 24.64 20.144 24.64C23.1307 24.64 24.624 25.7507 24.624 27.972C24.624 29.176 24.274 30.0907 23.574 30.716C22.8833 31.332 21.866 31.64 20.522 31.64C20.1673 31.64 19.836 31.626 19.528 31.598C19.444 31.598 19.402 31.6353 19.402 31.71V34.202C19.402 34.4167 19.3227 34.6033 19.164 34.762C19.0053 34.9207 18.8187 35 18.604 35H17.862ZM28.6244 35C28.4098 35 28.2231 34.9207 28.0644 34.762C27.9058 34.6033 27.8264 34.4167 27.8264 34.202V25.578C27.8264 25.3633 27.9058 25.1767 28.0644 25.018C28.2231 24.8593 28.4098 24.78 28.6244 24.78H29.4924C29.7071 24.78 29.8891 24.8593 30.0384 25.018C30.1971 25.1767 30.2764 25.3633 30.2764 25.578V32.914C30.2764 32.9887 30.3184 33.026 30.4024 33.026H33.8044C34.0191 33.026 34.2058 33.1053 34.3644 33.264C34.5231 33.4227 34.6024 33.6093 34.6024 33.824V34.202C34.6024 34.4167 34.5231 34.6033 34.3644 34.762C34.2058 34.9207 34.0191 35 33.8044 35H28.6244ZM41.9417 26.852L40.9197 30.87C40.9104 30.898 40.9151 30.926 40.9337 30.954C40.9617 30.9727 40.9897 30.982 41.0177 30.982H42.8937C42.9217 30.982 42.9451 30.9727 42.9637 30.954C42.9917 30.926 43.0011 30.898 42.9917 30.87L41.9697 26.852C41.9697 26.8427 41.9651 26.838 41.9557 26.838C41.9464 26.838 41.9417 26.8427 41.9417 26.852ZM38.2037 35C38.0077 35 37.8491 34.9207 37.7277 34.762C37.6157 34.6033 37.5924 34.4307 37.6577 34.244L40.4857 25.536C40.5604 25.312 40.6911 25.13 40.8777 24.99C41.0737 24.85 41.2884 24.78 41.5217 24.78H42.4457C42.6884 24.78 42.9077 24.85 43.1037 24.99C43.2997 25.13 43.4304 25.312 43.4957 25.536L46.3097 34.244C46.3751 34.4307 46.3471 34.6033 46.2257 34.762C46.1137 34.9207 45.9597 35 45.7637 35H44.8257C44.5924 35 44.3824 34.93 44.1957 34.79C44.0091 34.6407 43.8877 34.454 43.8317 34.23L43.4957 32.9C43.4864 32.8253 43.4397 32.788 43.3557 32.788H40.5557C40.4811 32.788 40.4344 32.8253 40.4157 32.9L40.0797 34.23C40.0237 34.454 39.9024 34.6407 39.7157 34.79C39.5291 34.93 39.3191 35 39.0857 35H38.2037ZM53.2528 35.14C51.7221 35.14 50.5181 34.6873 49.6408 33.782C48.7634 32.8767 48.3248 31.5793 48.3248 29.89C48.3248 28.2287 48.7494 26.9407 49.5988 26.026C50.4481 25.102 51.6334 24.64 53.1548 24.64C53.8828 24.64 54.5174 24.6913 55.0588 24.794C55.2828 24.8313 55.4648 24.9433 55.6048 25.13C55.7448 25.3167 55.8148 25.5267 55.8148 25.76V26.208C55.8148 26.404 55.7354 26.558 55.5768 26.67C55.4181 26.782 55.2454 26.8147 55.0588 26.768C54.5268 26.628 53.9854 26.558 53.4348 26.558C52.5948 26.558 51.9368 26.8427 51.4608 27.412C50.9941 27.9813 50.7608 28.8073 50.7608 29.89C50.7608 30.954 51.0128 31.78 51.5168 32.368C52.0208 32.956 52.6928 33.25 53.5328 33.25C54.0928 33.25 54.6388 33.18 55.1708 33.04C55.3574 32.9933 55.5301 33.026 55.6888 33.138C55.8568 33.25 55.9408 33.404 55.9408 33.6V34.02C55.9408 34.2533 55.8661 34.4633 55.7168 34.65C55.5768 34.8367 55.3948 34.9487 55.1708 34.986C54.6201 35.0887 53.9808 35.14 53.2528 35.14ZM60.5696 35C60.3549 35 60.1682 34.9207 60.0096 34.762C59.8602 34.6033 59.7856 34.4167 59.7856 34.202V25.578C59.7856 25.3633 59.8602 25.1767 60.0096 25.018C60.1682 24.8593 60.3549 24.78 60.5696 24.78H65.5256C65.7402 24.78 65.9222 24.8593 66.0716 25.018C66.2302 25.1767 66.3096 25.3633 66.3096 25.578V25.9C66.3096 26.1147 66.2302 26.3013 66.0716 26.46C65.9222 26.6187 65.7402 26.698 65.5256 26.698H62.2776C62.2029 26.698 62.1656 26.7353 62.1656 26.81V28.658C62.1656 28.742 62.2029 28.784 62.2776 28.784H65.2456C65.4602 28.784 65.6422 28.8633 65.7916 29.022C65.9502 29.1807 66.0296 29.3673 66.0296 29.582V29.792C66.0296 30.0067 65.9502 30.1933 65.7916 30.352C65.6422 30.5107 65.4602 30.59 65.2456 30.59H62.2776C62.2029 30.59 62.1656 30.6273 62.1656 30.702V32.97C62.1656 33.0447 62.2029 33.082 62.2776 33.082H65.5256C65.7402 33.082 65.9222 33.1613 66.0716 33.32C66.2302 33.4787 66.3096 33.6653 66.3096 33.88V34.202C66.3096 34.4167 66.2302 34.6033 66.0716 34.762C65.9222 34.9207 65.7402 35 65.5256 35H60.5696ZM76.7354 35C76.5207 35 76.334 34.9207 76.1754 34.762C76.0167 34.6033 75.9374 34.4167 75.9374 34.202V25.578C75.9374 25.3633 76.0167 25.1767 76.1754 25.018C76.334 24.8593 76.5207 24.78 76.7354 24.78H77.5334C77.776 24.78 77.9954 24.8453 78.1914 24.976C78.3874 25.1067 78.532 25.284 78.6254 25.508L80.7954 30.786C80.7954 30.7953 80.8 30.8 80.8094 30.8C80.8187 30.8 80.8234 30.7953 80.8234 30.786L82.9934 25.508C83.0867 25.284 83.2314 25.1067 83.4274 24.976C83.6234 24.8453 83.8427 24.78 84.0854 24.78H84.9394C85.154 24.78 85.3407 24.8593 85.4994 25.018C85.658 25.1767 85.7374 25.3633 85.7374 25.578V34.202C85.7374 34.4167 85.658 34.6033 85.4994 34.762C85.3407 34.9207 85.154 35 84.9394 35H84.2674C84.0527 35 83.866 34.9207 83.7074 34.762C83.558 34.6033 83.4834 34.4167 83.4834 34.202V28.756C83.4834 28.7467 83.4787 28.742 83.4694 28.742C83.4507 28.742 83.4414 28.7467 83.4414 28.756L82.0974 31.934C82.004 32.158 81.8547 32.3353 81.6494 32.466C81.4534 32.5967 81.234 32.662 80.9914 32.662H80.6274C80.3847 32.662 80.1607 32.5967 79.9554 32.466C79.7594 32.3353 79.6147 32.158 79.5214 31.934L78.1774 28.756C78.1774 28.7467 78.168 28.742 78.1494 28.742C78.14 28.742 78.1354 28.7467 78.1354 28.756V34.202C78.1354 34.4167 78.056 34.6033 77.8974 34.762C77.748 34.9207 77.566 35 77.3514 35H76.7354ZM91.9492 30.968L89.0372 25.48C88.9532 25.3213 88.9579 25.1673 89.0512 25.018C89.1446 24.8593 89.2846 24.78 89.4712 24.78H90.6052C90.8479 24.78 91.0672 24.8453 91.2632 24.976C91.4592 25.1067 91.6039 25.284 91.6972 25.508L93.2372 29.148C93.2372 29.1573 93.2419 29.162 93.2512 29.162C93.2606 29.162 93.2652 29.1573 93.2652 29.148L94.8052 25.508C94.8986 25.284 95.0432 25.1067 95.2392 24.976C95.4352 24.8453 95.6546 24.78 95.8972 24.78H96.9752C97.1526 24.78 97.2879 24.8593 97.3812 25.018C97.4839 25.1673 97.4932 25.3213 97.4092 25.48L94.4972 30.968C94.4599 31.0333 94.4412 31.1127 94.4412 31.206V34.202C94.4412 34.4167 94.3619 34.6033 94.2032 34.762C94.0539 34.9207 93.8719 35 93.6572 35H92.7892C92.5746 35 92.3879 34.9207 92.2292 34.762C92.0706 34.6033 91.9912 34.4167 91.9912 34.202V31.206C91.9912 31.094 91.9772 31.0147 91.9492 30.968ZM112.862 29.89C112.862 27.6967 112.078 26.6 110.51 26.6C108.942 26.6 108.158 27.6967 108.158 29.89C108.158 32.0833 108.942 33.18 110.51 33.18C112.078 33.18 112.862 32.0833 112.862 29.89ZM114.01 33.754C113.151 34.678 111.984 35.14 110.51 35.14C109.035 35.14 107.868 34.678 107.01 33.754C106.151 32.8207 105.722 31.5327 105.722 29.89C105.722 28.2473 106.151 26.964 107.01 26.04C107.868 25.1067 109.035 24.64 110.51 24.64C111.984 24.64 113.151 25.1067 114.01 26.04C114.868 26.964 115.298 28.2473 115.298 29.89C115.298 31.5327 114.868 32.8207 114.01 33.754ZM120.915 26.656V29.344C120.915 29.428 120.952 29.47 121.027 29.47H121.699C122.352 29.47 122.852 29.3347 123.197 29.064C123.542 28.784 123.715 28.3967 123.715 27.902C123.715 26.9313 123.076 26.446 121.797 26.446C121.508 26.446 121.256 26.4647 121.041 26.502C120.957 26.5207 120.915 26.572 120.915 26.656ZM119.375 35C119.16 35 118.974 34.9207 118.815 34.762C118.656 34.6033 118.577 34.4167 118.577 34.202V25.648C118.577 25.4147 118.652 25.214 118.801 25.046C118.96 24.878 119.151 24.7847 119.375 24.766C120.206 24.682 121.06 24.64 121.937 24.64C123.337 24.64 124.378 24.906 125.059 25.438C125.75 25.9607 126.095 26.7073 126.095 27.678C126.095 28.3033 125.913 28.868 125.549 29.372C125.185 29.8667 124.709 30.2213 124.121 30.436C124.112 30.436 124.107 30.4407 124.107 30.45C124.107 30.4687 124.116 30.478 124.135 30.478C124.592 30.7393 124.98 31.29 125.297 32.13L126.095 34.258C126.16 34.4353 126.137 34.6033 126.025 34.762C125.913 34.9207 125.764 35 125.577 35H124.723C124.48 35 124.261 34.93 124.065 34.79C123.869 34.65 123.734 34.468 123.659 34.244L122.959 32.228C122.828 31.836 122.67 31.57 122.483 31.43C122.296 31.29 122.007 31.22 121.615 31.22H121.027C120.952 31.22 120.915 31.262 120.915 31.346V34.202C120.915 34.4167 120.836 34.6033 120.677 34.762C120.518 34.9207 120.332 35 120.117 35H119.375ZM131.814 26.712V33.068C131.814 33.152 131.856 33.2033 131.94 33.222C132.126 33.2593 132.35 33.278 132.612 33.278C133.554 33.278 134.25 33.0027 134.698 32.452C135.155 31.9013 135.384 31.0007 135.384 29.75C135.384 28.63 135.155 27.8087 134.698 27.286C134.24 26.7633 133.545 26.502 132.612 26.502C132.35 26.502 132.126 26.5207 131.94 26.558C131.856 26.5767 131.814 26.628 131.814 26.712ZM130.274 35.028C130.05 35.0093 129.863 34.916 129.714 34.748C129.564 34.5707 129.49 34.3653 129.49 34.132V25.648C129.49 25.4147 129.564 25.214 129.714 25.046C129.863 24.8687 130.05 24.7707 130.274 24.752C131.002 24.6773 131.72 24.64 132.43 24.64C134.1 24.64 135.388 25.0833 136.294 25.97C137.199 26.8567 137.652 28.1167 137.652 29.75C137.652 31.5233 137.199 32.8673 136.294 33.782C135.388 34.6873 134.1 35.14 132.43 35.14C131.72 35.14 131.002 35.1027 130.274 35.028ZM141.72 35C141.505 35 141.318 34.9207 141.16 34.762C141.01 34.6033 140.936 34.4167 140.936 34.202V25.578C140.936 25.3633 141.01 25.1767 141.16 25.018C141.318 24.8593 141.505 24.78 141.72 24.78H146.676C146.89 24.78 147.072 24.8593 147.222 25.018C147.38 25.1767 147.46 25.3633 147.46 25.578V25.9C147.46 26.1147 147.38 26.3013 147.222 26.46C147.072 26.6187 146.89 26.698 146.676 26.698H143.428C143.353 26.698 143.316 26.7353 143.316 26.81V28.658C143.316 28.742 143.353 28.784 143.428 28.784H146.396C146.61 28.784 146.792 28.8633 146.942 29.022C147.1 29.1807 147.18 29.3673 147.18 29.582V29.792C147.18 30.0067 147.1 30.1933 146.942 30.352C146.792 30.5107 146.61 30.59 146.396 30.59H143.428C143.353 30.59 143.316 30.6273 143.316 30.702V32.97C143.316 33.0447 143.353 33.082 143.428 33.082H146.676C146.89 33.082 147.072 33.1613 147.222 33.32C147.38 33.4787 147.46 33.6653 147.46 33.88V34.202C147.46 34.4167 147.38 34.6033 147.222 34.762C147.072 34.9207 146.89 35 146.676 35H141.72ZM153.571 26.656V29.344C153.571 29.428 153.609 29.47 153.683 29.47H154.355C155.009 29.47 155.508 29.3347 155.853 29.064C156.199 28.784 156.371 28.3967 156.371 27.902C156.371 26.9313 155.732 26.446 154.453 26.446C154.164 26.446 153.912 26.4647 153.697 26.502C153.613 26.5207 153.571 26.572 153.571 26.656ZM152.031 35C151.817 35 151.63 34.9207 151.471 34.762C151.313 34.6033 151.233 34.4167 151.233 34.202V25.648C151.233 25.4147 151.308 25.214 151.457 25.046C151.616 24.878 151.807 24.7847 152.031 24.766C152.862 24.682 153.716 24.64 154.593 24.64C155.993 24.64 157.034 24.906 157.715 25.438C158.406 25.9607 158.751 26.7073 158.751 27.678C158.751 28.3033 158.569 28.868 158.205 29.372C157.841 29.8667 157.365 30.2213 156.777 30.436C156.768 30.436 156.763 30.4407 156.763 30.45C156.763 30.4687 156.773 30.478 156.791 30.478C157.249 30.7393 157.636 31.29 157.953 32.13L158.751 34.258C158.817 34.4353 158.793 34.6033 158.681 34.762C158.569 34.9207 158.42 35 158.233 35H157.379C157.137 35 156.917 34.93 156.721 34.79C156.525 34.65 156.39 34.468 156.315 34.244L155.615 32.228C155.485 31.836 155.326 31.57 155.139 31.43C154.953 31.29 154.663 31.22 154.271 31.22H153.683C153.609 31.22 153.571 31.262 153.571 31.346V34.202C153.571 34.4167 153.492 34.6033 153.333 34.762C153.175 34.9207 152.988 35 152.773 35H152.031Z" fill="white"/>
</svg>
